<svg width="623" height="463" viewBox="0 0 623 463" fill="none" xmlns="http://www.w3.org/2000/svg">
<path d="M369.18 203.759C369.18 195.324 344.779 174.879 325.222 174.879C310.202 174.879 309.958 180.782 295.323 180.782C272.76 180.782 256.017 152.748 212.625 152.748C166.393 152.748 105.983 184.995 105.983 210.291C105.983 246.513 369.18 255.194 369.18 203.759Z" fill="#E2E2E2"/>
<path d="M485.685 327.835C486.204 288.48 487.034 225.261 487.034 215.905C487.034 202.177 459.602 161.058 411.615 161.058C359.045 161.058 333.066 205.896 298.655 205.896C267.116 205.896 264.629 194.028 225.588 194.028C200.149 194.028 147.807 218.258 147.807 243.029L182.648 327.816L485.685 327.835Z" fill="#F3F3F3"/>
<path d="M315.566 262.449C315.728 259.952 314.64 257.885 313.137 257.831C311.633 257.777 310.283 259.757 310.121 262.254C309.959 264.751 311.047 266.818 312.55 266.872C314.054 266.926 315.404 264.946 315.566 262.449Z" fill="#D37C59"/>
<path d="M306.407 285.393C306.303 284.645 308.65 269.099 310.519 264.172C311.632 263.868 312.82 263.744 314.002 263.81L313.826 279.127L311.23 286.331L306.407 285.393Z" fill="#D37C59"/>
<path d="M322.246 263.748L305.925 264.751L305.405 262.351L321.115 258.659L322.246 263.748Z" fill="black"/>
<path d="M289.731 385.54H282.583V390.035H289.731V385.54Z" fill="#DE8E68"/>
<path d="M311.848 386.242H304.699V390.737H311.848V386.242Z" fill="#DE8E68"/>
<path d="M281.84 310.596V385.787H290.214L299.84 345.56C299.84 345.56 301.164 323.799 281.84 310.596Z" fill="#56CAD8"/>
<path d="M309.423 309.114C309.657 311.283 312.569 350.738 312.569 350.738V386.663L303.977 387.346L298.453 349.148L281.84 310.596C284.353 309.57 302.757 307.637 309.423 309.114Z" fill="#74D5DE"/>
<path d="M294.113 276.052C310.618 276.052 311.402 307.239 309.439 309.114C307.477 310.989 283.999 312.267 281.84 310.592C279.68 308.917 273.548 276.052 294.113 276.052Z" fill="#FED385"/>
<path d="M318.299 262.448C318.46 259.951 317.373 257.883 315.869 257.829C314.366 257.776 313.016 259.756 312.854 262.253C312.692 264.749 313.78 266.817 315.283 266.871C316.787 266.925 318.137 264.944 318.299 262.448Z" fill="#DE8E68"/>
<path d="M304.029 390.035V394.53H321.026V392.894L312.185 390.035H304.029Z" fill="black"/>
<path d="M282.359 389.325V393.82H299.357V392.184L290.516 389.325H282.359Z" fill="black"/>
<path d="M305.819 262.791L303.839 263.021L304.15 264.493L306.129 264.262L305.819 262.791Z" fill="black"/>
<path d="M295.323 278.765C295.323 279.795 288.88 279.922 288.88 278.765V268.54H295.323V278.765Z" fill="#D37C59"/>
<path d="M295.125 273.251C298.861 273.251 301.89 269.815 301.89 265.577C301.89 261.339 298.861 257.903 295.125 257.903C291.389 257.903 288.361 261.339 288.361 265.577C288.361 269.815 291.389 273.251 295.125 273.251Z" fill="#DC8E6C"/>
<path d="M283.346 262.413C283.346 260.048 284.732 258.555 285.859 258.08C288.034 257.154 288.943 257.567 291.134 256.845C293.507 256.074 295.542 253.821 298.319 253.821C300.915 253.821 300.682 254.916 302.442 255.24C303.48 255.429 309.378 254.422 309.378 257.258C309.378 261.626 302.852 261.981 301.341 262.54C301.115 262.037 300.851 261.544 300.552 261.063C299.363 261.973 295.059 262.606 294.363 262.81C292.754 263.304 291.985 265.176 291.985 266.399C291.985 267.622 290.495 267.626 290.122 267.626C286.679 267.626 283.346 265.986 283.346 262.413Z" fill="#FB836D"/>
<path d="M289.004 268.54C290.246 268.54 291.253 267.792 291.253 266.869C291.253 265.947 290.246 265.199 289.004 265.199C287.763 265.199 286.756 265.947 286.756 266.869C286.756 267.792 287.763 268.54 289.004 268.54Z" fill="#DC8E6C"/>
<path d="M279.285 282.01C279.285 279.331 276.363 277.16 272.76 277.16C269.156 277.16 266.234 279.331 266.234 282.01V304.955C266.234 307.633 269.156 309.805 272.76 309.805C276.363 309.805 279.285 307.633 279.285 304.955V282.01Z" fill="#D3D3D3"/>
<path d="M282.889 302.544C291.599 302.544 298.661 296.862 298.661 289.853C298.661 282.845 291.599 277.163 282.889 277.163C274.178 277.163 267.117 282.845 267.117 289.853C267.117 296.862 274.178 302.544 282.889 302.544Z" stroke="#D3D3D3" stroke-width="3.69" stroke-miterlimit="10"/>
<path d="M299.476 284.294C300.79 284.294 307.414 284.498 310.109 285.22C310.316 284.243 311.49 270.261 313.488 265.577C314.252 264.952 317.356 265.025 317.356 265.577C317.356 266.128 321.774 289.066 317.356 291.786C312.938 294.507 297.955 290.86 297.337 290.502C296.719 290.143 299.476 284.294 299.476 284.294Z" fill="#DE8E68"/>
<path d="M285.366 283.468C286.83 279.039 300.088 282.723 301.288 283.734C302.726 284.946 300.156 291.775 298.173 292.091C294.939 292.612 283.466 289.213 285.366 283.468Z" fill="#FED892"/>
<path d="M138.295 131.82L74.054 327.835H202.542L138.295 131.82Z" fill="#FED892"/>
<path d="M88.0612 131.82L23.8142 344.896H152.303L88.0612 131.82Z" fill="#56CAD8"/>
<path d="M88.4088 343.947V152.543" stroke="#FED385" stroke-width="3.84" stroke-linecap="round" stroke-linejoin="round"/>
<path d="M88.4088 215.661L102.369 204.384" stroke="#FED385" stroke-width="3.84" stroke-linecap="round" stroke-linejoin="round"/>
<path d="M88.4088 269.674L109.388 252.729" stroke="#FED385" stroke-width="3.84" stroke-linecap="round" stroke-linejoin="round"/>
<path d="M88.4088 326.021L121.039 299.661" stroke="#FED385" stroke-width="3.84" stroke-linecap="round" stroke-linejoin="round"/>
<path d="M88.4088 215.661L74.4487 204.384" stroke="#FED385" stroke-width="3.84" stroke-linecap="round" stroke-linejoin="round"/>
<path d="M88.4087 269.674L67.4346 252.729" stroke="#FED385" stroke-width="3.84" stroke-linecap="round" stroke-linejoin="round"/>
<path d="M88.4089 326.021L55.7793 299.661" stroke="#FED385" stroke-width="3.84" stroke-linecap="round" stroke-linejoin="round"/>
<path d="M134.049 283.333H134.044C114.635 283.333 98.9014 295.026 98.9014 309.45V333.287C98.9014 347.711 114.635 359.404 134.044 359.404H134.049C153.457 359.404 169.191 347.711 169.191 333.287V309.45C169.191 295.026 153.457 283.333 134.049 283.333Z" fill="#74D5DE"/>
<path d="M134.043 379.251V307.065" stroke="#FED385" stroke-width="3.69" stroke-linecap="round" stroke-linejoin="round"/>
<path d="M134.043 337.762C153.253 337.762 153.253 329.166 153.253 316.156" stroke="#FED385" stroke-width="3.69" stroke-linecap="round" stroke-linejoin="round"/>
<path d="M134.044 324.613C120.727 324.613 120.727 318.644 120.727 309.627" stroke="#FED385" stroke-width="3.69" stroke-linecap="round" stroke-linejoin="round"/>
<path d="M598.273 327.835V257.571C598.24 249.261 593.784 241.298 585.877 235.423C577.971 229.547 567.256 226.235 556.075 226.21C553.802 226.211 551.533 226.348 549.289 226.619V145.76C549.289 140.067 546.247 134.607 540.83 130.581C535.414 126.556 528.068 124.293 520.408 124.292C512.747 124.292 505.399 126.554 499.982 130.58C494.565 134.606 491.521 140.067 491.521 145.76V163.069C487.175 161.968 482.615 161.406 478.023 161.406C466.84 161.43 456.125 164.743 448.219 170.619C440.312 176.496 435.856 184.46 435.825 192.77V250.406H417.451C409.812 250.423 402.493 252.686 397.092 256.7C391.69 260.715 388.645 266.154 388.622 271.831V321.731C388.622 323.798 389.028 325.854 389.826 327.835H598.273Z" fill="#FED385"/>
<path d="M519.251 285.845C566.809 285.845 566.81 270.025 566.81 246.104" stroke="#74D5DE" stroke-width="3.69" stroke-linecap="round" stroke-linejoin="round"/>
<path d="M519.297 306.923C493.131 306.923 493.131 298.218 493.131 285.057" stroke="#74D5DE" stroke-width="3.69" stroke-linecap="round" stroke-linejoin="round"/>
<path d="M519.251 327.835V140.509" stroke="#74D5DE" stroke-width="3.69" stroke-linecap="round" stroke-linejoin="round"/>
<path d="M519.25 246.104L493.176 226.723" stroke="#74D5DE" stroke-width="3.69" stroke-linecap="round" stroke-linejoin="round"/>
<path d="M519.251 206.116L535.024 194.394" stroke="#74D5DE" stroke-width="3.69" stroke-linecap="round" stroke-linejoin="round"/>
<path d="M389.629 131.82C391.023 127.591 390.331 123.131 387.678 119.249C385.026 115.366 380.589 112.319 375.172 110.66C369.756 109.001 363.718 108.839 358.155 110.205C352.592 111.571 347.872 114.373 344.851 118.104C341.892 117.11 338.645 116.683 335.407 116.863C332.168 117.042 329.042 117.822 326.314 119.13C323.586 120.439 321.342 122.235 319.788 124.354C318.234 126.473 317.419 128.847 317.418 131.261C317.418 131.45 317.418 131.646 317.418 131.82H389.629Z" fill="#F3F3F3"/>
<path d="M151.55 103.511C150.157 99.2824 150.849 94.8222 153.501 90.94C156.154 87.0577 160.591 84.0107 166.007 82.3515C171.424 80.6923 177.461 80.5309 183.024 81.8965C188.587 83.2622 193.307 86.0645 196.328 89.795C199.287 88.7983 202.535 88.3692 205.775 88.5472C209.015 88.7251 212.142 89.5043 214.872 90.8135C217.602 92.1226 219.846 93.9199 221.399 96.0405C222.951 98.1612 223.763 100.538 223.76 102.952C223.76 103.137 223.76 103.338 223.76 103.511H151.55Z" fill="#F3F3F3"/>
<path d="M479.881 361.163C453.778 361.163 432.638 369.447 432.638 379.683H527.15C527.134 369.447 505.979 361.163 479.881 361.163Z" fill="#74D5DE"/>
<path d="M261.016 388.507C254.501 388.507 249.216 391.887 249.216 396.058H272.822C272.822 391.887 267.537 388.507 261.016 388.507Z" fill="#FB836D"/>
<path d="M432.622 348.192C426.101 348.192 420.821 353.207 420.821 359.404H444.407C444.407 353.211 439.137 348.192 432.622 348.192Z" fill="#FB836D"/>
<path d="M62.7517 376.022C52.3683 376.022 43.9786 378.533 43.9786 381.628H81.5093C81.5093 378.533 73.1195 376.022 62.7517 376.022Z" fill="#FB836D"/>
<path d="M535.027 376.022C524.644 376.022 516.254 378.533 516.254 381.628H553.795C553.795 378.533 545.395 376.022 535.027 376.022Z" fill="#FB836D"/>
<path d="M457.936 288.044H457.931C445.364 288.044 435.176 295.615 435.176 304.955V320.388C435.176 329.728 445.364 337.299 457.931 337.299H457.936C470.503 337.299 480.691 329.728 480.691 320.388V304.955C480.691 295.615 470.503 288.044 457.936 288.044Z" fill="#74D5DE"/>
<path d="M457.936 350.155V303.412" stroke="#FED385" stroke-width="2.39" stroke-linecap="round" stroke-linejoin="round"/>
<path d="M457.936 323.29C470.365 323.29 470.365 317.722 470.365 309.3" stroke="#FED385" stroke-width="2.39" stroke-linecap="round" stroke-linejoin="round"/>
<path d="M457.936 314.775C449.312 314.775 449.312 310.916 449.312 305.067" stroke="#FED385" stroke-width="2.39" stroke-linecap="round" stroke-linejoin="round"/>
<path d="M172.213 365.635H214.286" stroke="#FED385" stroke-width="3.69" stroke-linecap="round" stroke-linejoin="round"/>
<path d="M347.011 344.896H374.911" stroke="#FED385" stroke-width="3.69" stroke-linecap="round" stroke-linejoin="round"/>
<path d="M325.969 350.155H353.874" stroke="#FED385" stroke-width="3.69" stroke-linecap="round" stroke-linejoin="round"/>
<path d="M60.6802 354.442H88.5853" stroke="#FED385" stroke-width="3.69" stroke-linecap="round" stroke-linejoin="round"/>
<path d="M388.622 385.54H427.846" stroke="#FED385" stroke-width="3.69" stroke-linecap="round" stroke-linejoin="round"/>
</svg>
