<?xml version="1.0" standalone="no"?>
<!DOCTYPE svg PUBLIC "-//W3C//DTD SVG 20010904//EN"
 "http://www.w3.org/TR/2001/REC-SVG-20010904/DTD/svg10.dtd">
<svg version="1.0" xmlns="http://www.w3.org/2000/svg"
 width="120.000000pt" height="120.000000pt" viewBox="0 0 120.000000 120.000000"
 preserveAspectRatio="xMidYMid meet">
<metadata>
Created by potrace 1.11, written by Peter Selinger 2001-2013
</metadata>
<g transform="translate(0.000000,120.000000) scale(0.100000,-0.100000)"
fill="#000000" stroke="none">
<path d="M440 1177 c-135 -41 -240 -112 -318 -218 -41 -55 -88 -147 -97 -188
-3 -12 -8 -31 -11 -43 -13 -51 -15 -146 -5 -184 16 -61 63 -118 117 -144 41
-20 65 -24 178 -26 72 -1 135 -2 139 -3 4 -1 -2 -11 -14 -23 -58 -61 -67 -143
-26 -227 55 -111 179 -146 350 -99 166 45 308 161 385 313 66 133 79 326 30
457 -70 186 -209 322 -388 380 -98 31 -243 33 -340 5z"/>
</g>
</svg>
